<svg width="17" height="21" viewBox="0 0 17 21" fill="none" xmlns="http://www.w3.org/2000/svg">
<g clip-path="url(#clip0_1_619)">
<path fill-rule="evenodd" clip-rule="evenodd" d="M8.76048 15.476C5.07948 15.476 2.09448 11.514 2.09448 11.514C2.09448 11.514 5.07948 7.55298 8.76148 7.55298C12.4425 7.55298 15.4275 11.515 15.4275 11.515C15.4275 11.515 12.4425 15.477 8.76148 15.477L8.76048 15.476ZM4.68248 12.723C4.23044 12.3502 3.80475 11.9466 3.40848 11.515C3.71848 11.177 4.15448 10.741 4.68248 10.307C5.82348 9.36998 7.26648 8.55298 8.76248 8.55298C10.2585 8.55298 11.7005 9.36998 12.8425 10.307C13.3705 10.741 13.8055 11.177 14.1165 11.515C13.8055 11.853 13.3705 12.289 12.8415 12.723C11.7005 13.66 10.2585 14.477 8.76148 14.477C7.26648 14.477 5.82348 13.66 4.68248 12.723ZM10.0255 11.101C10.2565 11.101 10.4655 11.008 10.6185 10.858C10.7674 11.2768 10.7695 11.7338 10.6244 12.154C10.4794 12.5742 10.1959 12.9326 9.82033 13.1704C9.44479 13.4082 8.99957 13.5113 8.55772 13.4628C8.11587 13.4142 7.70364 13.217 7.38867 12.9033C7.07371 12.5897 6.87471 12.1783 6.82433 11.7366C6.77395 11.295 6.87519 10.8493 7.11144 10.4728C7.34768 10.0963 7.70489 9.81122 8.12446 9.66444C8.54403 9.51765 9.00104 9.51784 9.42048 9.66498C9.30439 9.78373 9.22591 9.93409 9.19487 10.0972C9.16384 10.2604 9.18162 10.429 9.24599 10.5821C9.31036 10.7352 9.41847 10.8659 9.55677 10.9578C9.69506 11.0498 9.85741 11.0989 10.0235 11.099L10.0255 11.101Z" fill="#111111"/>
</g>
<defs>
<clipPath id="clip0_1_619">
<rect width="16" height="16" fill="white" transform="translate(0.760498 3.51294)"/>
</clipPath>
</defs>
</svg>
